<svg width="0" height="0" class="hidden">
  <symbol xmlns="http://www.w3.org/2000/svg" viewBox="0 0 24 20" id="icon-twitter">
    <path fill="#FFF" d="M23.492 2.705a9.563 9.563 0 0 1-2.742.751 4.788 4.788 0 0 0 2.1-2.643 9.536 9.536 0 0 1-3.033 1.159 4.778 4.778 0 0 0-8.14 4.357 13.564 13.564 0 0 1-9.844-4.99 4.774 4.774 0 0 0-.646 2.4 4.778 4.778 0 0 0 2.124 3.977 4.765 4.765 0 0 1-2.163-.598v.061a4.778 4.778 0 0 0 3.832 4.684 4.812 4.812 0 0 1-2.158.082 4.78 4.78 0 0 0 4.462 3.316 9.584 9.584 0 0 1-5.932 2.045c-.38 0-.762-.022-1.14-.067a13.508 13.508 0 0 0 7.32 2.146c8.787 0 13.59-7.277 13.59-13.589 0-.205-.004-.412-.013-.617a9.71 9.71 0 0 0 2.381-2.471l.002-.003Z"></path>
  </symbol>
  <symbol xmlns="http://www.w3.org/2000/svg" viewBox="0 0 25 24" id="icon-github">
    <path fill="#FFF" fill-rule="evenodd" d="M12.304 0C5.506 0 0 5.506 0 12.304c0 5.444 3.522 10.042 8.413 11.672.615.108.845-.261.845-.584 0-.292-.015-1.261-.015-2.291-3.091.569-3.891-.754-4.137-1.446-.138-.354-.738-1.446-1.261-1.738-.43-.23-1.046-.8-.016-.815.97-.015 1.661.892 1.892 1.261 1.107 1.86 2.876 1.338 3.584 1.015.107-.8.43-1.338.784-1.646-2.738-.307-5.598-1.368-5.598-6.074 0-1.338.477-2.446 1.26-3.307-.122-.308-.553-1.569.124-3.26 0 0 1.03-.323 3.383 1.26.985-.276 2.03-.415 3.076-.415 1.046 0 2.092.139 3.076.416 2.353-1.6 3.384-1.261 3.384-1.261.676 1.691.246 2.952.123 3.26.784.861 1.26 1.953 1.26 3.307 0 4.721-2.875 5.767-5.613 6.074.446.385.83 1.123.83 2.277 0 1.645-.015 2.968-.015 3.383 0 .323.231.708.846.584a12.324 12.324 0 0 0 8.382-11.672C24.607 5.506 19.101 0 12.304 0Z"></path>
  </symbol>
  <symbol xmlns="http://www.w3.org/2000/svg" viewBox="0 0 21 20" id="icon-instagram">
    <path fill="#FFF" d="M10.333 1.802c2.67 0 2.987.01 4.042.059 2.71.123 3.976 1.409 4.1 4.099.048 1.054.057 1.37.057 4.04 0 2.672-.01 2.988-.058 4.042-.124 2.687-1.386 3.975-4.099 4.099-1.055.048-1.37.058-4.042.058-2.67 0-2.986-.01-4.04-.058-2.717-.124-3.976-1.416-4.1-4.1-.048-1.054-.058-1.37-.058-4.041 0-2.67.01-2.986.058-4.04.124-2.69 1.387-3.977 4.1-4.1 1.054-.048 1.37-.058 4.04-.058zm0-1.802C7.618 0 7.278.012 6.211.06 2.579.227.56 2.242.394 5.877.345 6.944.334 7.284.334 10s.011 3.057.06 4.123c.166 3.632 2.181 5.65 5.816 5.817 1.068.048 1.408.06 4.123.06 2.716 0 3.057-.012 4.124-.06 3.628-.167 5.651-2.182 5.816-5.817.049-1.066.06-1.407.06-4.123s-.011-3.056-.06-4.122C20.11 2.249 18.093.228 14.458.06 13.39.01 13.049 0 10.333 0zm0 4.865a5.135 5.135 0 100 10.27 5.135 5.135 0 000-10.27zm0 8.468a3.333 3.333 0 110-6.666 3.333 3.333 0 010 6.666zm5.339-9.87a1.2 1.2 0 10-.001 2.4 1.2 1.2 0 000-2.4z"></path>
  </symbol>
  <symbol xmlns="http://www.w3.org/2000/svg" viewBox="0 0 25 24" id="icon-linkedin">
    <path fill="#FFF" fill-rule="evenodd" d="M5.551 3.304c-1.14 0-2.067.926-2.067 2.064 0 1.14.928 2.066 2.067 2.066a2.066 2.066 0 0 0 0-4.13ZM3.767 8.998v11.453h3.562L7.33 8.998H3.767Zm5.798 0V20.45l3.554.002.002-5.668c0-1.454.253-2.941 2.132-2.941 1.851 0 1.851 1.755 1.851 3.036v5.571l3.559-.001v-6.28c0-2.834-.517-5.457-4.27-5.457-1.763 0-2.916.997-3.368 1.85h-.05V8.997h-3.41ZM22.435 24H1.982c-.976 0-1.77-.777-1.77-1.732V1.731C.212.776 1.006 0 1.982 0h20.453c.98 0 1.777.776 1.777 1.73v20.538c0 .955-.797 1.732-1.777 1.732Z"></path>
  </symbol>
</svg>